<svg width="40" height="40" viewBox="0 0 40 40" fill="none" xmlns="http://www.w3.org/2000/svg">
<g id="result icon">
<path id="Vector" fill-rule="evenodd" clip-rule="evenodd" d="M24.238 4.33065C22.4322 0.778695 17.5687 0.778702 15.7628 4.33065L2.23526 30.9379C0.619652 34.1157 2.66176 38.3334 6.47286 38.3334H33.528C37.3392 38.3334 39.3812 34.1157 37.7657 30.9379L24.238 4.33065ZM20.0005 13.3334C20.921 13.3334 21.6672 14.0796 21.6672 15V23.3334C21.6672 24.2539 20.921 25 20.0005 25C19.08 25 18.3338 24.2539 18.3338 23.3334V15C18.3338 14.0796 19.08 13.3334 20.0005 13.3334ZM20.0005 27.5C20.921 27.5 21.6672 28.2462 21.6672 29.1667V30C21.6672 30.9205 20.921 31.6667 20.0005 31.6667C19.08 31.6667 18.3338 30.9205 18.3338 30V29.1667C18.3338 28.2462 19.08 27.5 20.0005 27.5Z" fill="#EABB16"/>
</g>
</svg>
